<svg width="18" height="17" viewBox="0 0 18 17" fill="none" xmlns="http://www.w3.org/2000/svg">
<path d="M1.00006 11V16H17.0001V11" stroke="#009471" stroke-linecap="round" stroke-linejoin="round"/>
<path d="M9.50006 1C9.50006 0.723858 9.2762 0.5 9.00006 0.5C8.72392 0.5 8.50006 0.723858 8.50006 1L9.50006 1ZM8.64651 11.3536C8.84177 11.5488 9.15835 11.5488 9.35361 11.3536L12.5356 8.17157C12.7309 7.97631 12.7309 7.65973 12.5356 7.46447C12.3403 7.2692 12.0238 7.2692 11.8285 7.46447L9.00006 10.2929L6.17163 7.46447C5.97637 7.2692 5.65979 7.2692 5.46453 7.46447C5.26927 7.65973 5.26927 7.97631 5.46453 8.17157L8.64651 11.3536ZM8.50006 1L8.50006 11L9.50006 11L9.50006 1L8.50006 1Z" fill="#009471"/>
</svg>
